<svg width="24" height="24" viewBox="0 0 24 24" fill="none" xmlns="http://www.w3.org/2000/svg">
<g clip-path="url(#clip0_58_199)">
<path d="M16.3814 4.41715L1.30537 8.6259C0.711244 8.79294 0.183091 9.13914 -0.207081 9.61732C-0.597253 10.0955 -0.830455 10.6824 -0.874892 11.2979C-0.91933 11.9135 -0.77284 12.5278 -0.455396 13.057C-0.137951 13.5863 0.334999 14.0048 0.898973 14.2554L6.28252 16.6249C6.41003 16.6845 6.52438 16.769 6.61888 16.8734C6.71339 16.9777 6.78616 17.0999 6.83294 17.2327L8.65855 22.8241C8.81442 23.2991 9.08652 23.7276 9.45013 24.0707C9.81373 24.4138 10.2573 24.6606 10.7405 24.7886C11.2238 24.9167 11.7314 24.9219 12.2172 24.8039C12.7029 24.6859 13.1515 24.4484 13.5222 24.1129C13.8661 23.7952 14.1346 23.4045 14.3081 22.9695L19.9867 8.38347C20.1871 7.86496 20.2395 7.30096 20.138 6.75441C20.0366 6.20785 19.7853 5.70023 19.4121 5.28818C19.039 4.87614 18.5587 4.57587 18.0248 4.42088C17.491 4.26589 16.9246 4.26227 16.3888 4.41044L16.3814 4.41715ZM18.118 7.66077L12.4394 22.2468C12.3624 22.4357 12.2295 22.5964 12.0585 22.7076C11.8875 22.8187 11.6867 22.875 11.4828 22.8687C11.279 22.8625 11.0819 22.794 10.9181 22.6726C10.7542 22.5512 10.6314 22.3826 10.5661 22.1894L8.73311 16.6047C8.70791 16.5308 8.6784 16.4584 8.64474 16.3879L13.7519 11.7631C13.9484 11.585 14.0663 11.3362 14.0794 11.0713C14.0925 10.8064 13.9999 10.5472 13.8219 10.3506C13.6438 10.154 13.395 10.0362 13.1301 10.023C12.8652 10.0099 12.606 10.1026 12.4094 10.2806L7.30225 14.9055C7.23545 14.865 7.16634 14.8285 7.09528 14.7961L1.71914 12.4199C1.53335 12.3358 1.37771 12.1969 1.27309 12.0219C1.16846 11.8469 1.11986 11.644 1.13379 11.4405C1.14773 11.2371 1.22353 11.0428 1.35104 10.8836C1.47855 10.7245 1.65168 10.6081 1.84719 10.5501L16.9232 6.34137C17.101 6.29362 17.2884 6.29586 17.465 6.34782C17.6416 6.39979 17.8003 6.49947 17.9239 6.63589C18.0474 6.77231 18.1309 6.94018 18.1652 7.12101C18.1994 7.30184 18.1831 7.48862 18.118 7.66077Z" fill="white"/>
</g>
<defs>
<clipPath id="clip0_58_199">
<rect width="24" height="24" fill="white"/>
</clipPath>
</defs>
</svg>
