<svg width="18" height="18" viewBox="0 0 18 18" fill="none" xmlns="http://www.w3.org/2000/svg">
<path d="M16.2902 17.0822L9.84899 10.6616C9.33468 11.0984 8.74323 11.4364 8.07462 11.6757C7.40602 11.9149 6.73399 12.0345 6.05853 12.0345C4.41137 12.0345 3.01725 11.4662 1.87617 10.3294C0.735091 9.19267 0.164551 7.80335 0.164551 6.16146C0.164551 4.51957 0.734405 3.12956 1.87411 1.99145C3.01382 0.853336 4.40726 0.283596 6.05442 0.282229C7.70158 0.280862 9.09639 0.849577 10.2388 1.98837C11.3813 3.12717 11.9525 4.51718 11.9525 6.15838C11.9525 6.87064 11.826 7.56001 11.573 8.22647C11.3199 8.89293 10.9873 9.46302 10.5752 9.93672L17.0164 16.3563L16.2902 17.0822ZM6.05956 11.0082C7.42419 11.0082 8.57625 10.54 9.51572 9.60349C10.4552 8.66702 10.9249 7.51831 10.9249 6.15736C10.9249 4.79641 10.4552 3.64804 9.51572 2.71226C8.57625 1.77647 7.42419 1.30824 6.05956 1.30756C4.69493 1.30687 3.54253 1.77511 2.60238 2.71226C1.66222 3.64941 1.19248 4.79777 1.19317 6.15736C1.19385 7.51694 1.66359 8.66531 2.60238 9.60246C3.54116 10.5396 4.69321 11.0078 6.05853 11.0072" fill="white"/>
</svg>
